# 3ds Max Wavefront OBJ Exporter v0.97b - (c)2007 guruware
# File Created: 30.11.2015 11:21:59

mtllib 3d-model.mtl

#
# object galeria_001
#

v  -5.9055 17.7501 -8.7234
v  5.9055 17.7501 -8.7234
v  5.9055 17.7501 -24.2462
v  -5.9055 17.7501 -24.2462
v  -5.9055 33.2729 -8.7234
v  5.9055 33.2729 -8.7234
v  -5.9055 33.2729 -24.2462
v  5.9055 33.2729 -24.2462
v  -5.9055 0.9791 -8.7234
v  -5.9055 17.1260 -8.7234
v  5.9055 17.1260 -8.7234
v  5.9055 0.9791 -8.7234
v  -5.9055 17.1260 -24.2462
v  5.9055 17.1260 -24.2462
v  -5.9055 0.9791 -24.2462
v  5.9055 0.9791 -24.2462
v  -5.9055 17.7501 7.9360
v  5.9055 17.7501 7.9360
v  5.9055 17.7501 -7.9360
v  -5.9055 17.7501 -7.9360
v  -5.9055 33.2729 7.9360
v  5.9055 33.2729 7.9360
v  -5.9055 33.2729 -7.9360
v  5.9055 33.2729 -7.9360
v  -5.9055 0.9791 7.9360
v  -5.9055 17.1260 7.9360
v  5.9055 17.1260 7.9360
v  5.9055 0.9791 7.9360
v  -5.9055 17.1260 -7.9360
v  5.9055 17.1260 -7.9360
v  -5.9055 0.9791 -7.9360
v  5.9055 0.9791 -7.9360
v  -5.9055 0.9791 24.2462
v  -5.9055 17.1260 24.2462
v  5.9055 17.1260 24.2462
v  5.9055 0.9791 24.2462
v  -5.9055 17.1260 8.7234
v  5.9055 17.1260 8.7234
v  -5.9055 0.9791 8.7234
v  5.9055 0.9791 8.7234
v  -5.9055 17.1260 25.0336
v  -5.9055 0.9791 25.0336
v  5.9055 0.9791 25.0336
v  5.9055 17.1260 25.0336
v  -5.9055 0.9791 40.5564
v  5.9055 0.9791 40.5564
v  -5.9055 17.1260 40.5564
v  5.9055 17.1260 40.5564
v  -5.9055 17.7501 24.2462
v  -5.9055 33.2729 24.2462
v  5.9055 33.2729 24.2462
v  5.9055 17.7501 24.2462
v  -5.9055 33.2729 8.7234
v  5.9055 33.2729 8.7234
v  -5.9055 17.7501 8.7234
v  5.9055 17.7501 8.7234
v  5.9055 33.2729 40.5564
v  -5.9055 33.2729 40.5564
v  -5.9055 33.2729 25.0336
v  5.9055 33.2729 25.0336
v  -5.9055 17.7501 25.0336
v  5.9055 17.7501 25.0336
v  -5.9055 17.7501 40.5564
v  5.9055 17.7501 40.5564
v  5.9055 0.0000 41.5354
v  -5.9055 0.0000 41.5354
v  -5.9055 0.0000 -41.5354
v  5.9055 0.0000 -41.5354
v  -5.9055 34.2520 -41.5354
v  5.9055 34.2520 -41.5354
v  -5.9055 34.2520 41.5354
v  5.9055 34.2520 41.5354
v  5.9055 0.9791 -25.0336
v  5.9055 0.9791 -40.5564
v  5.9055 17.1260 -40.5564
v  5.9055 17.7501 -40.5564
v  5.9055 33.2729 -40.5564
v  5.9055 17.7501 -25.0336
v  5.9055 17.1260 -25.0336
v  5.9055 33.2729 -25.0336
v  -5.9055 17.7501 -25.0336
v  -5.9055 33.2729 -25.0336
v  -5.9055 33.2729 -40.5564
v  -5.9055 17.7501 -40.5564
v  -5.9055 0.9791 -25.0336
v  -5.9055 0.9791 -40.5564
v  -5.9055 17.1260 -25.0336
v  -5.9055 17.1260 -40.5564
# 88 vertices

vn -0.0000 1.0000 -0.0000
vn 0.0000 0.0000 -1.0000
vn 0.0000 -1.0000 -0.0000
vn 0.0000 0.0000 1.0000
vn 1.0000 0.0000 -0.0000
vn -1.0000 -0.0000 -0.0000
# 6 vertex normals

vt 0.0000 0.0000 0.0000
# 1 texture coords

g galeria_001
usemtl Color_008
s off
f 1/1/1 2/1/1 3/1/1 4/1/1 
f 1/1/2 5/1/2 6/1/2 2/1/2 
f 6/1/3 5/1/3 7/1/3 8/1/3 
f 7/1/4 4/1/4 3/1/4 8/1/4 
f 9/1/2 10/1/2 11/1/2 12/1/2 
f 11/1/3 10/1/3 13/1/3 14/1/3 
f 13/1/4 15/1/4 16/1/4 14/1/4 
f 9/1/1 12/1/1 16/1/1 15/1/1 
f 17/1/1 18/1/1 19/1/1 20/1/1 
f 17/1/2 21/1/2 22/1/2 18/1/2 
f 22/1/3 21/1/3 23/1/3 24/1/3 
f 23/1/4 20/1/4 19/1/4 24/1/4 
f 25/1/2 26/1/2 27/1/2 28/1/2 
f 27/1/3 26/1/3 29/1/3 30/1/3 
f 29/1/4 31/1/4 32/1/4 30/1/4 
f 25/1/1 28/1/1 32/1/1 31/1/1 
f 33/1/2 34/1/2 35/1/2 36/1/2 
f 35/1/3 34/1/3 37/1/3 38/1/3 
f 37/1/4 39/1/4 40/1/4 38/1/4 
f 33/1/1 36/1/1 40/1/1 39/1/1 
f 41/1/4 42/1/4 43/1/4 44/1/4 
f 45/1/1 46/1/1 43/1/1 42/1/1 
f 45/1/2 47/1/2 48/1/2 46/1/2 
f 48/1/3 47/1/3 41/1/3 44/1/3 
f 49/1/2 50/1/2 51/1/2 52/1/2 
f 51/1/3 50/1/3 53/1/3 54/1/3 
f 53/1/4 55/1/4 56/1/4 54/1/4 
f 49/1/1 52/1/1 56/1/1 55/1/1 
f 57/1/3 58/1/3 59/1/3 60/1/3 
f 59/1/4 61/1/4 62/1/4 60/1/4 
f 63/1/1 64/1/1 62/1/1 61/1/1 
f 63/1/2 58/1/2 57/1/2 64/1/2 
f 65/1/3 66/1/3 67/1/3 68/1/3 
f 67/1/2 69/1/2 70/1/2 68/1/2 
f 71/1/1 72/1/1 70/1/1 69/1/1 
f 71/1/4 66/1/4 65/1/4 72/1/4 
f 57/1/5 70/1/5 72/1/5 65/1/5 
f 64/1/5 57/1/5 65/1/5 48/1/5 
f 46/1/5 48/1/5 65/1/5 43/1/5 
f 36/1/5 43/1/5 65/1/5 40/1/5 
f 28/1/5 40/1/5 65/1/5 32/1/5 
f 12/1/5 32/1/5 65/1/5 16/1/5 
f 73/1/5 16/1/5 65/1/5 74/1/5 
f 74/1/5 65/1/5 68/1/5 75/1/5 
f 76/1/5 75/1/5 68/1/5 77/1/5 
f 77/1/5 68/1/5 70/1/5 57/1/5 
f 77/1/5 57/1/5 60/1/5 51/1/5 
f 51/1/5 60/1/5 62/1/5 52/1/5 
f 48/1/5 52/1/5 62/1/5 64/1/5 
f 56/1/5 52/1/5 48/1/5 18/1/5 
f 19/1/5 18/1/5 48/1/5 2/1/5 
f 3/1/5 2/1/5 48/1/5 78/1/5 
f 76/1/5 78/1/5 48/1/5 75/1/5 
f 75/1/5 48/1/5 44/1/5 35/1/5 
f 35/1/5 44/1/5 43/1/5 36/1/5 
f 75/1/5 35/1/5 38/1/5 27/1/5 
f 27/1/5 38/1/5 40/1/5 28/1/5 
f 75/1/5 27/1/5 30/1/5 11/1/5 
f 11/1/5 30/1/5 32/1/5 12/1/5 
f 75/1/5 11/1/5 14/1/5 79/1/5 
f 79/1/5 14/1/5 16/1/5 73/1/5 
f 3/1/5 78/1/5 80/1/5 8/1/5 
f 8/1/5 80/1/5 77/1/5 6/1/5 
f 24/1/5 6/1/5 77/1/5 22/1/5 
f 54/1/5 22/1/5 77/1/5 51/1/5 
f 22/1/5 54/1/5 56/1/5 18/1/5 
f 6/1/5 24/1/5 19/1/5 2/1/5 
f 81/1/2 82/1/2 80/1/2 78/1/2 
f 80/1/3 82/1/3 83/1/3 77/1/3 
f 83/1/4 84/1/4 76/1/4 77/1/4 
f 81/1/1 78/1/1 76/1/1 84/1/1 
f 85/1/1 73/1/1 74/1/1 86/1/1 
f 85/1/2 87/1/2 79/1/2 73/1/2 
f 79/1/3 87/1/3 88/1/3 75/1/3 
f 88/1/4 86/1/4 74/1/4 75/1/4 
f 83/1/6 71/1/6 69/1/6 67/1/6 
f 84/1/6 83/1/6 67/1/6 88/1/6 
f 86/1/6 88/1/6 67/1/6 85/1/6 
f 15/1/6 85/1/6 67/1/6 9/1/6 
f 31/1/6 9/1/6 67/1/6 25/1/6 
f 39/1/6 25/1/6 67/1/6 33/1/6 
f 42/1/6 33/1/6 67/1/6 45/1/6 
f 45/1/6 67/1/6 66/1/6 47/1/6 
f 63/1/6 47/1/6 66/1/6 58/1/6 
f 58/1/6 66/1/6 71/1/6 83/1/6 
f 58/1/6 83/1/6 82/1/6 7/1/6 
f 7/1/6 82/1/6 81/1/6 4/1/6 
f 88/1/6 4/1/6 81/1/6 84/1/6 
f 1/1/6 4/1/6 88/1/6 20/1/6 
f 17/1/6 20/1/6 88/1/6 55/1/6 
f 49/1/6 55/1/6 88/1/6 61/1/6 
f 63/1/6 61/1/6 88/1/6 47/1/6 
f 47/1/6 88/1/6 87/1/6 13/1/6 
f 13/1/6 87/1/6 85/1/6 15/1/6 
f 47/1/6 13/1/6 10/1/6 29/1/6 
f 29/1/6 10/1/6 9/1/6 31/1/6 
f 47/1/6 29/1/6 26/1/6 37/1/6 
f 37/1/6 26/1/6 25/1/6 39/1/6 
f 47/1/6 37/1/6 34/1/6 41/1/6 
f 41/1/6 34/1/6 33/1/6 42/1/6 
f 49/1/6 61/1/6 59/1/6 50/1/6 
f 50/1/6 59/1/6 58/1/6 53/1/6 
f 21/1/6 53/1/6 58/1/6 23/1/6 
f 5/1/6 23/1/6 58/1/6 7/1/6 
f 23/1/6 5/1/6 1/1/6 20/1/6 
f 53/1/6 21/1/6 17/1/6 55/1/6 
# 106 polygons

#
# object Group_001
#

v  -3.1496 0.9791 40.5460
v  -3.1496 0.9791 -40.5564
v  0.0000 0.9791 -40.5564
v  0.0000 0.9791 40.5460
v  -3.1496 33.2625 -40.5564
v  -3.1496 33.2625 40.5460
v  0.0000 33.2625 40.5460
v  0.0000 33.2625 -40.5564
# 8 vertices

vn 0.0000 -1.0000 -0.0000
vn 0.0000 1.0000 -0.0000
vn 0.0000 0.0000 1.0000
vn 0.0000 0.0000 -1.0000
vn 1.0000 0.0000 -0.0000
vn -1.0000 0.0000 -0.0000
# 6 vertex normals

vt 0.0000 0.0000 0.0000
vt 0.0000 1.8587 0.0000
vt -2.0600 1.8587 0.0000
vt -2.0600 0.0000 0.0000
# 4 texture coords

g Group_001
usemtl skp_front_default
s off
f 89/2/7 90/2/7 91/2/7 92/2/7 
f 93/2/8 94/2/8 95/2/8 96/2/8 
f 89/2/9 92/2/9 95/2/9 94/2/9 
f 91/2/10 90/2/10 93/2/10 96/2/10 
f 95/2/11 92/2/11 91/2/11 96/2/11 
usemtl Color_B05
f 89/2/12 94/3/12 93/4/12 90/5/12 
# 6 polygons

